<svg xmlns="http://www.w3.org/2000/svg" xmlns:xlink="http://www.w3.org/1999/xlink" viewBox="0 0 64 64"><defs><style>.cls-1{fill:url(#linear-gradient);}.cls-2{fill:#8a6762;}.cls-3{fill:url(#linear-gradient-2);}.cls-4{fill:url(#linear-gradient-3);}.cls-5{fill:#cba07a;}.cls-6{fill:url(#linear-gradient-5);}.cls-7{fill:url(#linear-gradient-6);}.cls-8{fill:url(#linear-gradient-7);}.cls-9{fill:#fce2d0;}.cls-10{fill:#ffd39f;}</style><linearGradient id="linear-gradient" x1="0.98" y1="38.98" x2="63" y2="38.98" gradientUnits="userSpaceOnUse"><stop offset="0" stop-color="#9b756d"/><stop offset="1" stop-color="#bc9388"/></linearGradient><linearGradient id="linear-gradient-2" x1="1.02" y1="29" x2="62.98" y2="29" gradientUnits="userSpaceOnUse"><stop offset="0" stop-color="#da5466"/><stop offset="1" stop-color="#f4929c"/></linearGradient><linearGradient id="linear-gradient-3" x1="32" y1="45" x2="32" y2="60" gradientUnits="userSpaceOnUse"><stop offset="0" stop-color="#d1a788"/><stop offset="1" stop-color="#f2d3b8"/></linearGradient><linearGradient id="linear-gradient-5" x1="3" y1="35.5" x2="60.99" y2="35.5" gradientUnits="userSpaceOnUse"><stop offset="0" stop-color="#fbcc88"/><stop offset="1" stop-color="#ffe5c3"/></linearGradient><linearGradient id="linear-gradient-6" x1="1" y1="45.5" x2="62.99" y2="45.5" gradientUnits="userSpaceOnUse"><stop offset="0" stop-color="#8cdd79"/><stop offset="1" stop-color="#d4e6b6"/></linearGradient><linearGradient id="linear-gradient-7" y1="27" y2="4" xlink:href="#linear-gradient-3"/></defs><title>Burger</title><g id="Burger"><path class="cls-1" d="M63,38v2a3,3,0,0,1-3,3H4a3,3,0,0,1-3-3c0-1.83-.23-3.18,1-4.27S-1.19,35,60,35A3,3,0,0,1,63,38Z"/><path class="cls-2" d="M62,35.73A3.93,3.93,0,0,1,59.07,37H44.83c-4.45,4.44-4.84,5.27-6.28,5L16.78,37H4.93A3.93,3.93,0,0,1,2,35.73,3,3,0,0,1,4,35C65,35,60.75,34.69,62,35.73Z"/><path class="cls-3" d="M61,31H3a2,2,0,0,1,0-4H61A2,2,0,0,1,61,31Z"/><path class="cls-4" d="M61,48A12,12,0,0,1,49,60H15A12,12,0,0,1,3,48c0-1,.46-1.28,2-3H59C60.52,46.71,61,47,61,48Z"/><path class="cls-4" d="M61,48A12,12,0,0,1,49,60H15A12,12,0,0,1,3,48c0-1,.46-1.28,2-3H59C60.52,46.71,61,47,61,48Z"/><path class="cls-5" d="M61,48A12,12,0,0,1,49,60H15A12,12,0,0,1,3,48a1.87,1.87,0,0,1,.2-.85A12,12,0,0,0,15,57H49a12,12,0,0,0,11.81-9.84A2,2,0,0,1,61,48Z"/><path class="cls-6" d="M59.07,35H44l-5,5L17,35H4.93c-2.57,0-2.58-4,0-4H59.07C61.67,31,61.6,35,59.07,35Z"/><path class="cls-7" d="M61.73,46.14C59.82,46.59,59.4,48,56.79,48c-3.1,0-3.1-2-6.2-2s-3.1,2-6.21,2-3.09-2-6.19-2-3.1,2-6.2,2-3.1-2-6.2-2-3.1,2-6.2,2-3.1-2-6.2-2-3.1,2-6.2,2c-2.6,0-3-1.41-4.92-1.86A1.59,1.59,0,0,1,2.58,43H61.42A1.59,1.59,0,0,1,61.73,46.14Z"/><path class="cls-8" d="M57.93,27H6.07A4.07,4.07,0,0,1,2,22.93,18.94,18.94,0,0,1,20.93,4H43.07A18.94,18.94,0,0,1,62,22.93,4.07,4.07,0,0,1,57.93,27Z"/><path class="cls-5" d="M62,22.93A4.07,4.07,0,0,1,57.93,27H6.07A4.07,4.07,0,0,1,2,22.93a19.81,19.81,0,0,1,.11-2.05,4.08,4.08,0,0,0,4,3.12H57.93a4.07,4.07,0,0,0,4-3.12A19.81,19.81,0,0,1,62,22.93Z"/><path class="cls-9" d="M33,9a1,1,0,0,1-2,0A1,1,0,0,1,33,9Z"/><path class="cls-9" d="M29,16a1,1,0,0,1-2,0A1,1,0,0,1,29,16Z"/><path class="cls-9" d="M21,16a1,1,0,0,1-2,0A1,1,0,0,1,21,16Z"/><path class="cls-9" d="M13,16a1,1,0,0,1-2,0A1,1,0,0,1,13,16Z"/><path class="cls-9" d="M37,16a1,1,0,0,1-2,0A1,1,0,0,1,37,16Z"/><path class="cls-9" d="M45,16a1,1,0,0,1-2,0A1,1,0,0,1,45,16Z"/><path class="cls-9" d="M53,16a1,1,0,0,1-2,0A1,1,0,0,1,53,16Z"/><path class="cls-9" d="M25,9a1,1,0,0,1-2,0A1,1,0,0,1,25,9Z"/><path class="cls-9" d="M17,9a1,1,0,0,1-2,0A1,1,0,0,1,17,9Z"/><path class="cls-9" d="M41,9a1,1,0,0,1-2,0A1,1,0,0,1,41,9Z"/><path class="cls-9" d="M49,9a1,1,0,0,1-2,0A1,1,0,0,1,49,9Z"/><path class="cls-10" d="M61,32.93C61,33,63.84,33,3,33a2,2,0,0,1,1.93-2H59.07A1.94,1.94,0,0,1,61,32.93Z"/></g></svg>