<svg xmlns="http://www.w3.org/2000/svg" xmlns:xlink="http://www.w3.org/1999/xlink" viewBox="0 0 64 64"><defs><style>.cls-1{fill:url(#linear-gradient);}.cls-2{fill:url(#linear-gradient-2);}.cls-3{fill:#cba07a;}.cls-4{fill:#c7cdd8;}.cls-5{fill:url(#linear-gradient-3);}.cls-6{fill:#4da67f;}.cls-7{fill:url(#linear-gradient-5);}.cls-8{fill:url(#linear-gradient-6);}.cls-9{fill:#dfe3ea;}</style><linearGradient id="linear-gradient" x1="32" y1="63" x2="32" y2="13" gradientUnits="userSpaceOnUse"><stop offset="0" stop-color="#d4d8e1"/><stop offset="1" stop-color="#f3f4f5"/></linearGradient><linearGradient id="linear-gradient-2" x1="32" y1="48" x2="32" y2="22" gradientUnits="userSpaceOnUse"><stop offset="0" stop-color="#d1a788"/><stop offset="1" stop-color="#f2d3b8"/></linearGradient><linearGradient id="linear-gradient-3" x1="32" y1="44" x2="32" y2="26" gradientUnits="userSpaceOnUse"><stop offset="0" stop-color="#6ab891"/><stop offset="1" stop-color="#85cba9"/></linearGradient><linearGradient id="linear-gradient-5" y1="13" y2="7" xlink:href="#linear-gradient"/><linearGradient id="linear-gradient-6" y1="7" y2="1" xlink:href="#linear-gradient"/></defs><title>Coffee</title><g id="Coffee"><path class="cls-1" d="M53,13c-1.5,15-3.5,35-5,50H16c-2.51-25.13-3.6-36-5-50Z"/><path class="cls-2" d="M53.1,22,50.5,48h-37c-.58-5.79-1.9-19-2.6-26Z"/><polygon class="cls-3" points="50.8 45 50.5 48 13.5 48 13.2 45 50.8 45"/><polygon class="cls-4" points="48.3 60 48 63 16 63 15.7 60 48.3 60"/><circle class="cls-5" cx="32" cy="35" r="9"/><circle class="cls-5" cx="32" cy="35" r="9"/><path class="cls-6" d="M32,44a9,9,0,0,1-8.94-10,9,9,0,0,0,17.88,0A9,9,0,0,1,32,44Z"/><path class="cls-7" d="M13,7H51a4,4,0,0,1,4,4v2a0,0,0,0,1,0,0H9a0,0,0,0,1,0,0V11A4,4,0,0,1,13,7Z"/><polygon class="cls-8" points="50 7 14 7 16 1 48 1 50 7"/><polygon class="cls-9" points="53 13 52.7 16 11.3 16 11 13 53 13"/></g></svg>