<svg xmlns="http://www.w3.org/2000/svg" xmlns:xlink="http://www.w3.org/1999/xlink" viewBox="0 0 64 64"><defs><style>.cls-1{fill:url(#linear-gradient);}.cls-2{fill:#dd8b37;}.cls-3{fill:url(#linear-gradient-2);}.cls-4{fill:#77cacb;}.cls-5{fill:url(#linear-gradient-3);}.cls-6{fill:#f6b756;}.cls-7{fill:url(#linear-gradient-4);}.cls-8{fill:url(#linear-gradient-5);}</style><linearGradient id="linear-gradient" x1="19" y1="23" x2="19" y2="3" gradientUnits="userSpaceOnUse"><stop offset="0" stop-color="#e9a254"/><stop offset="1" stop-color="#f4bb79"/></linearGradient><linearGradient id="linear-gradient-2" x1="33" y1="63" x2="33" y2="13" gradientUnits="userSpaceOnUse"><stop offset="0" stop-color="#9dd5df"/><stop offset="1" stop-color="#c3e1f5"/></linearGradient><linearGradient id="linear-gradient-3" x1="33" y1="58" x2="33" y2="26" gradientUnits="userSpaceOnUse"><stop offset="0" stop-color="#fbcc88"/><stop offset="1" stop-color="#ffe5c3"/></linearGradient><linearGradient id="linear-gradient-4" x1="44.99" y1="52.99" x2="44.99" gradientUnits="userSpaceOnUse"><stop offset="0" stop-color="#d4d8e1"/><stop offset="1" stop-color="#f3f4f5"/></linearGradient><linearGradient id="linear-gradient-5" x1="24" y1="23" x2="24" y2="13" xlink:href="#linear-gradient-3"/></defs><title>Juice</title><g id="Juice"><circle class="cls-1" cx="19" cy="13" r="10"/><path class="cls-2" d="M19,23A10,10,0,0,1,9.05,12,10,10,0,0,0,29,12,10,10,0,0,1,19,23Z"/><path class="cls-3" d="M19,13H47a0,0,0,0,1,0,0V61a2,2,0,0,1-2,2H21a2,2,0,0,1-2-2V13A0,0,0,0,1,19,13Z"/><path class="cls-4" d="M47,58v3a2,2,0,0,1-2,2H21a2,2,0,0,1-2-2V58a2,2,0,0,0,2,2H45A2,2,0,0,0,47,58Z"/><path class="cls-5" d="M21,26H45a0,0,0,0,1,0,0V56a2,2,0,0,1-2,2H23a2,2,0,0,1-2-2V26A0,0,0,0,1,21,26Z"/><path class="cls-6" d="M45,53v3a2,2,0,0,1-2,2H23a2,2,0,0,1-2-2V53a2,2,0,0,0,2,2H43A2,2,0,0,0,45,53Z"/><path class="cls-7" d="M34,51.83l9-51A1,1,0,0,1,44,0H55a1,1,0,0,1,0,2H44.84L36,52.17A1,1,0,0,1,34,51.83Z"/><path class="cls-8" d="M19,13c10.61,0,10,.1,10,0A10,10,0,0,1,19,23Z"/><path class="cls-6" d="M29,13A10,10,0,0,1,19,23V21a10,10,0,0,0,9.8-8Z"/></g></svg>