<svg xmlns="http://www.w3.org/2000/svg" xmlns:xlink="http://www.w3.org/1999/xlink" viewBox="0 0 64 64"><defs><style>.cls-1{fill:url(#linear-gradient);}.cls-2{fill:url(#linear-gradient-2);}.cls-3{fill:#cba07a;}.cls-4{fill:url(#linear-gradient-3);}.cls-5{fill:url(#linear-gradient-5);}.cls-6{fill:url(#linear-gradient-6);}.cls-7{fill:url(#linear-gradient-7);}.cls-8{fill:url(#linear-gradient-8);}.cls-9{fill:url(#linear-gradient-9);}.cls-10{fill:url(#linear-gradient-10);}.cls-11{fill:#f6b756;}.cls-12{fill:url(#linear-gradient-11);}.cls-13{fill:url(#linear-gradient-12);}.cls-14{fill:url(#linear-gradient-13);}.cls-15{fill:url(#linear-gradient-14);}.cls-16{fill:url(#linear-gradient-17);}.cls-17{fill:url(#linear-gradient-19);}.cls-18{fill:url(#linear-gradient-20);}.cls-19{fill:url(#linear-gradient-21);}.cls-20{fill:url(#linear-gradient-22);}.cls-21{fill:url(#linear-gradient-23);}.cls-22{fill:url(#linear-gradient-24);}.cls-23{fill:url(#linear-gradient-25);}.cls-24{fill:url(#linear-gradient-26);}.cls-25{fill:url(#linear-gradient-27);}.cls-26{fill:url(#linear-gradient-28);}.cls-27{fill:url(#linear-gradient-29);}.cls-28{fill:url(#linear-gradient-30);}</style><linearGradient id="linear-gradient" x1="38.8" y1="26" x2="38.8" y2="9.35" gradientUnits="userSpaceOnUse"><stop offset="0" stop-color="#e9a254"/><stop offset="1" stop-color="#f4bb79"/></linearGradient><linearGradient id="linear-gradient-2" x1="54.46" y1="26" x2="54.46" y2="1.67" gradientUnits="userSpaceOnUse"><stop offset="0" stop-color="#d1a788"/><stop offset="1" stop-color="#f2d3b8"/></linearGradient><linearGradient id="linear-gradient-3" x1="30" y1="12.22" x2="30" y2="4" xlink:href="#linear-gradient-2"/><linearGradient id="linear-gradient-5" x1="9.54" y1="33" x2="9.54" y2="8.67" xlink:href="#linear-gradient-2"/><linearGradient id="linear-gradient-6" x1="9.54" y1="57.33" x2="9.54" y2="33" xlink:href="#linear-gradient-2"/><linearGradient id="linear-gradient-7" x1="30" y1="62" x2="30" y2="53.78" xlink:href="#linear-gradient-2"/><linearGradient id="linear-gradient-8" x1="50.46" y1="57.33" x2="50.46" y2="33" xlink:href="#linear-gradient-2"/><linearGradient id="linear-gradient-9" x1="18" y1="53.78" x2="18" y2="33" gradientUnits="userSpaceOnUse"><stop offset="0" stop-color="#fbcc88"/><stop offset="1" stop-color="#ffe5c3"/></linearGradient><linearGradient id="linear-gradient-10" x1="29.99" y1="33" x2="29.99" y2="9" xlink:href="#linear-gradient-9"/><linearGradient id="linear-gradient-11" y1="33" y2="12.22" xlink:href="#linear-gradient-9"/><linearGradient id="linear-gradient-12" x1="37.99" x2="37.99" y2="12.2" xlink:href="#linear-gradient"/><linearGradient id="linear-gradient-13" x1="30" y1="57" x2="30" xlink:href="#linear-gradient-9"/><linearGradient id="linear-gradient-14" x1="42" y1="53.78" x2="42" xlink:href="#linear-gradient-9"/><linearGradient id="linear-gradient-17" x1="46.02" y1="26" x2="46.02" y2="5.22" xlink:href="#linear-gradient-9"/><linearGradient id="linear-gradient-19" x1="46.5" y1="22" x2="46.5" y2="17" gradientUnits="userSpaceOnUse"><stop offset="0" stop-color="#da5466"/><stop offset="1" stop-color="#f4929c"/></linearGradient><linearGradient id="linear-gradient-20" x1="30.5" y1="21" x2="30.5" y2="16" xlink:href="#linear-gradient-19"/><linearGradient id="linear-gradient-21" x1="44.5" y1="46" x2="44.5" y2="41" xlink:href="#linear-gradient-19"/><linearGradient id="linear-gradient-22" x1="29.5" y1="49" x2="29.5" y2="44" xlink:href="#linear-gradient-19"/><linearGradient id="linear-gradient-23" x1="16.5" y1="44" x2="16.5" y2="39" xlink:href="#linear-gradient-19"/><linearGradient id="linear-gradient-24" x1="14.5" y1="28" x2="14.5" y2="23" xlink:href="#linear-gradient-19"/><linearGradient id="linear-gradient-25" x1="46.99" y1="12.24" x2="51.5" y2="12.24" gradientUnits="userSpaceOnUse"><stop offset="0" stop-color="#8cdd79"/><stop offset="1" stop-color="#d4e6b6"/></linearGradient><linearGradient id="linear-gradient-26" x1="41.01" y1="37" x2="46.99" y2="37" xlink:href="#linear-gradient-25"/><linearGradient id="linear-gradient-27" x1="31" y1="52.5" x2="37" y2="52.5" xlink:href="#linear-gradient-25"/><linearGradient id="linear-gradient-28" x1="17.99" y1="36.99" x2="23" y2="36.99" xlink:href="#linear-gradient-25"/><linearGradient id="linear-gradient-29" x1="19" y1="27.99" x2="25" y2="27.99" xlink:href="#linear-gradient-25"/><linearGradient id="linear-gradient-30" x1="23" y1="13.99" x2="29" y2="13.99" xlink:href="#linear-gradient-25"/></defs><title>Pizza</title><g id="Pizza"><path class="cls-1" d="M43.61,9.35C43.52,9.59,34.1,26,34,26,43.25,10,41.43,13.11,43.61,9.35Z"/><path class="cls-2" d="M62.92,23.86a2,2,0,0,1-2,2.14H58A24,24,0,0,0,46,5.22l1.47-2.54A2,2,0,0,1,50.3,2,28.94,28.94,0,0,1,62.92,23.86Z"/><path class="cls-3" d="M62.92,23.83a2,2,0,0,1-2,2.17H58A24,24,0,0,0,46,5.22l.86-1.48a24,24,0,0,1,11,17.56c.31,2.77,4.14,3.71,5,1.38C62.85,23.06,62.89,23.44,62.92,23.83Z"/><path class="cls-4" d="M43.61,9.35,42,12.2a23.94,23.94,0,0,0-23.95,0L16.54,9.68a2,2,0,0,1,.84-2.8,29.09,29.09,0,0,1,25.24,0A2,2,0,0,1,43.61,9.35Z"/><path class="cls-3" d="M43.61,9.35,42,12.2a23.94,23.94,0,0,0-23.95,0C16.67,9.91,15.79,9,16.54,7.68l.51.88a2,2,0,0,0,2.59.79,24,24,0,0,1,20.69,0,2,2,0,0,0,2.59-.8l.52-.9A2,2,0,0,1,43.61,9.35Z"/><path class="cls-1" d="M43.61,9.35C43.52,9.59,34.1,26,34,26,43.25,10,41.43,13.11,43.61,9.35Z"/><path class="cls-5" d="M18,12.22A24,24,0,0,0,6,33H3.08a2,2,0,0,1-2-2.14A29,29,0,0,1,13.69,9a2,2,0,0,1,2.85.67Z"/><path class="cls-3" d="M18,12.22A24,24,0,0,0,6,33H3.08a2,2,0,0,1-2-2.17c0-.39.07-.77.11-1.15C2,32,5.84,31.07,6.15,28.3a24,24,0,0,1,11-17.56Z"/><path class="cls-6" d="M18,53.78l-1.47,2.54a2,2,0,0,1-2.85.67A29,29,0,0,1,1.08,35.14a2,2,0,0,1,2-2.14H6A24,24,0,0,0,18,53.78Z"/><path class="cls-7" d="M42.62,59.12a29.09,29.09,0,0,1-25.24,0,2,2,0,0,1-.84-2.8L18,53.78a23.92,23.92,0,0,0,24,0l1.47,2.54A2,2,0,0,1,42.62,59.12Z"/><path class="cls-3" d="M42.62,59.12a29.09,29.09,0,0,1-25.24,0,2,2,0,0,1-.84-2.79,2,2,0,0,0,.84.79,29.09,29.09,0,0,0,25.24,0,2,2,0,0,0,.84-.79A2,2,0,0,1,42.62,59.12Z"/><path class="cls-8" d="M58.92,35.14A29,29,0,0,1,46.31,57a2,2,0,0,1-2.85-.67L42,53.78A24,24,0,0,0,54,33h2.92A2,2,0,0,1,58.92,35.14Z"/><path class="cls-3" d="M18,53.78l-1.47,2.54a2,2,0,0,1-2.85.67A29,29,0,0,1,1.08,35.14a2,2,0,0,1,.11-.82A29,29,0,0,0,13.69,55a2,2,0,0,0,2.85-.67l.61-1.06C17.43,53.44,17.72,53.61,18,53.78Z"/><path class="cls-3" d="M46.31,57a2,2,0,0,1-2.85-.67L42,53.78c.29-.17.58-.34.86-.52l.61,1.06a2,2,0,0,0,2.85.67,29,29,0,0,0,12.5-20.67C59.51,36.34,57.56,49.33,46.31,57Z"/><path class="cls-9" d="M30,33,18,53.78A24,24,0,0,1,6,33Z"/><path class="cls-10" d="M30,33,18,12.22a23.94,23.94,0,0,1,24,0Z"/><path class="cls-11" d="M30,33,18,12.22c.43-.25.87-.49,1.32-.71L28.27,27a2,2,0,0,0,3.46,0l8.91-15.51c.45.22.89.46,1.32.71Z"/><path class="cls-12" d="M30,33H6A24,24,0,0,1,18,12.22Z"/><path class="cls-11" d="M30,33H6c0-.67,0-1.34.09-2H28.85Z"/><path class="cls-13" d="M42,12.22C33.66,26.66,34.1,26,34,26,42.06,12,41.89,12.12,42,12.22Z"/><path class="cls-14" d="M42,53.78a23.92,23.92,0,0,1-24,0L30,33Z"/><path class="cls-11" d="M42,53.78a23.92,23.92,0,0,1-24,0l.88-1.52a23.91,23.91,0,0,0,22.22,0Z"/><path class="cls-15" d="M54,33A24,24,0,0,1,42,53.78L30,33Z"/><path class="cls-9" d="M30,33,18,53.78A24,24,0,0,1,6,33Z"/><path class="cls-15" d="M54,33A24,24,0,0,1,42,53.78L30,33Z"/><path class="cls-11" d="M53.32,38.66A24,24,0,0,1,42,53.78L30,33h1.8l9.1,15.13a3,3,0,0,0,4.33.89A24.14,24.14,0,0,0,53.32,38.66Z"/><path class="cls-11" d="M6.68,38.66A24,24,0,0,0,18,53.78L30,33H28.2L19.1,48.13a3,3,0,0,1-4.33.89A24.14,24.14,0,0,1,6.68,38.66Z"/><path class="cls-16" d="M58,26H34C46.47,4.45,43.4,9.71,46,5.22A24,24,0,0,1,58,26Z"/><path class="cls-11" d="M58,26H34l1.15-2H57.91C58,24.66,58,25.33,58,26Z"/><path class="cls-1" d="M43.61,9.35C43.52,9.59,34.1,26,34,26,43.25,10,41.43,13.11,43.61,9.35Z"/><circle class="cls-17" cx="46.5" cy="19.5" r="2.5"/><circle class="cls-18" cx="30.5" cy="18.5" r="2.5"/><circle class="cls-19" cx="44.5" cy="43.5" r="2.5"/><circle class="cls-20" cx="29.5" cy="46.5" r="2.5"/><circle class="cls-21" cx="16.5" cy="41.5" r="2.5"/><circle class="cls-22" cx="14.5" cy="25.5" r="2.5"/><path class="cls-23" d="M50.5,14.5c-.56,0-.54-.13-3.21-2.79a1,1,0,0,1,1.42-1.42l2.5,2.5A1,1,0,0,1,50.5,14.5Z"/><path class="cls-24" d="M46,38H42a1,1,0,0,1,0-2h4A1,1,0,0,1,46,38Z"/><path class="cls-25" d="M32,54a1,1,0,0,1-.24-2l4-1A1,1,0,0,1,36.24,53,38.32,38.32,0,0,1,32,54Z"/><path class="cls-26" d="M22,39c-.41,0-.28,0-3.55-2.17a1,1,0,0,1,1.1-1.66l3,2A1,1,0,0,1,22,39Z"/><path class="cls-27" d="M24,30c-.34,0-.13.05-4.45-2.11a1,1,0,0,1,.9-1.78l4,2A1,1,0,0,1,24,30Z"/><path class="cls-28" d="M24,16a1,1,0,0,1-.45-1.89l4-2a1,1,0,0,1,.9,1.78C24.13,16.05,24.33,16,24,16Z"/></g></svg>