<svg xmlns="http://www.w3.org/2000/svg" xmlns:xlink="http://www.w3.org/1999/xlink" viewBox="0 0 64 64"><defs><style>.cls-1{fill:url(#linear-gradient);}.cls-2{fill:url(#linear-gradient-2);}.cls-3{fill:url(#linear-gradient-3);}.cls-4{fill:#4da67f;}.cls-5{fill:url(#linear-gradient-4);}.cls-6{fill:url(#linear-gradient-5);}.cls-7{fill:url(#linear-gradient-6);}.cls-8{fill:url(#linear-gradient-7);}.cls-9{fill:#c7cdd8;}.cls-10{fill:#f6b756;}.cls-11{fill:url(#linear-gradient-8);}.cls-12{fill:url(#linear-gradient-9);}.cls-13{fill:url(#linear-gradient-10);}.cls-14{fill:url(#linear-gradient-11);}.cls-15{fill:url(#linear-gradient-12);}</style><linearGradient id="linear-gradient" x1="47.64" y1="26" x2="47.64" y2="6" gradientUnits="userSpaceOnUse"><stop offset="0" stop-color="#6ab891"/><stop offset="1" stop-color="#85cba9"/></linearGradient><linearGradient id="linear-gradient-2" x1="46.72" y1="20.99" x2="58.03" y2="20.99" gradientUnits="userSpaceOnUse"><stop offset="0" stop-color="#fbcc88"/><stop offset="1" stop-color="#ffe5c3"/></linearGradient><linearGradient id="linear-gradient-3" x1="6" y1="21" x2="34.52" y2="21" xlink:href="#linear-gradient"/><linearGradient id="linear-gradient-4" x1="40.93" x2="40.93" y2="20" xlink:href="#linear-gradient"/><linearGradient id="linear-gradient-5" x1="32" y1="58" x2="32" y2="52.83" gradientUnits="userSpaceOnUse"><stop offset="0" stop-color="#a0a6ba"/><stop offset="1" stop-color="#c6ccda"/></linearGradient><linearGradient id="linear-gradient-6" x1="32" y1="54" x2="32" y2="25.96" gradientUnits="userSpaceOnUse"><stop offset="0" stop-color="#d4d8e1"/><stop offset="1" stop-color="#f3f4f5"/></linearGradient><linearGradient id="linear-gradient-7" x1="32" x2="32" y2="26" xlink:href="#linear-gradient-6"/><linearGradient id="linear-gradient-8" x1="40.42" y1="22.11" x2="40.42" y2="13.98" xlink:href="#linear-gradient-2"/><linearGradient id="linear-gradient-9" x1="26.75" y1="19.1" x2="26.75" y2="7" gradientUnits="userSpaceOnUse"><stop offset="0" stop-color="#8cdd79"/><stop offset="1" stop-color="#d4e6b6"/></linearGradient><linearGradient id="linear-gradient-10" x1="21.5" y1="23.5" x2="13" y2="23.5" gradientUnits="userSpaceOnUse"><stop offset="0" stop-color="#da5466"/><stop offset="1" stop-color="#f4929c"/></linearGradient><linearGradient id="linear-gradient-11" x1="25" y1="26" x2="25" y2="20.99" xlink:href="#linear-gradient-10"/><linearGradient id="linear-gradient-12" x1="20.38" y1="14.88" x2="10" y2="14.88" xlink:href="#linear-gradient-9"/></defs><title>Sald</title><g id="Sald"><path class="cls-1" d="M59,26H57.56c2.42-6.52-4.93-12.52-10.84-9a9,9,0,0,0-12.2-1.16,12.23,12.23,0,0,0-1.38-3.08C35,10,35.62,9.05,37,9c1.85-.07,2,2,4,2s2.57-5,4-5c3,0,3,6,5,6s1.35-2,3-2c3,0,2.3,5.22,4,5,1.34-.17,1-1,3-1C62.89,14,63.13,20.75,59,26Z"/><path class="cls-2" d="M57.56,26H54c0-1.36-1.71-2.13-3.11-2.33A3,3,0,0,0,49,22.11,8.87,8.87,0,0,0,46.72,17C52.64,13.48,60,19.48,57.56,26Z"/><path class="cls-3" d="M34.52,26H6a4,4,0,0,1,3.11-3.89,4,4,0,0,1,4.42-3.06A3.94,3.94,0,0,1,18.9,17.5a4,4,0,0,1,6.2,0A3.94,3.94,0,0,1,30.45,19a4.2,4.2,0,0,1,3.84,1.72C34.42,23.49,34.36,22.3,34.52,26Z"/><path class="cls-4" d="M34.52,29H6a4,4,0,0,1,3.11-3.89,4,4,0,0,1,4.42-3.06A3.94,3.94,0,0,1,18.9,20.5a4,4,0,0,1,6.2,0A3.94,3.94,0,0,1,30.45,22a4.2,4.2,0,0,1,3.84,1.72C34.42,26.49,34.36,25.3,34.52,29Z"/><path class="cls-4" d="M34.52,26H25.86V21.9a2,2,0,0,1,1.62-2,7.19,7.19,0,0,1,1.36-.14c.33-.23,1.52-.86,1.63-.75a3.94,3.94,0,0,1,3.82,1.69C34.42,23.49,34.36,22.3,34.52,26Z"/><path class="cls-5" d="M54,26H27.86V21.9a5.92,5.92,0,0,1,1.67-.07c1.19-1.28,3.73-1.5,5.37-.93a5.79,5.79,0,0,1,6.2,0,5.5,5.5,0,0,1,5.37.93c1.65-.09,3.87.37,4.42,1.84C52.67,23.91,54,24.86,54,26Z"/><rect class="cls-6" x="21" y="52.83" width="22" height="5.17"/><path class="cls-7" d="M35,54H29A28,28,0,0,1,1,26c0-.1-1.6,0,62,0A28,28,0,0,1,35,54Z"/><path class="cls-8" d="M63,26A28,28,0,0,1,35,54H29A28,28,0,0,1,1,26Z"/><path class="cls-9" d="M63,27.29A28,28,0,0,1,35,54H29A28,28,0,0,1,1,27.29C1.79,40.49,14,51,29,51h6C50.31,51,62.23,40.21,63,27.29Z"/><path class="cls-10" d="M51.11,23.7l-.22,0A3,3,0,0,0,49,22.11,8.87,8.87,0,0,0,46.72,17a7,7,0,0,1,1.94-.8C50.81,19,50.89,21.39,51.11,23.7Z"/><path class="cls-11" d="M49,22.11a6.08,6.08,0,0,0-2.48-.28,5.5,5.5,0,0,0-5.37-.93,5.79,5.79,0,0,0-6.2,0,4.21,4.21,0,0,0-.61-.16,4,4,0,0,0-2.4-1.64,9,9,0,0,1,17.06,3Z"/><path class="cls-12" d="M34.52,15.87a9,9,0,0,0-2.63,3.23,3.49,3.49,0,0,0-1.42-.05A3.94,3.94,0,0,0,25.1,17.5a4,4,0,0,0-4.72-1.15C18.69,13.13,19,10.65,19,7h3.72A12.29,12.29,0,0,1,34.52,15.87Z"/><path class="cls-13" d="M21.5,22.43A5,5,0,0,0,20,26H13A5,5,0,0,1,21.5,22.43Z"/><path class="cls-14" d="M30,26H20a5,5,0,0,1,10,0Z"/><path class="cls-15" d="M20.38,16.35A4,4,0,0,0,18.9,17.5a3.91,3.91,0,0,0-5.19,1.27A10,10,0,0,1,10,11c6.34,0,7.19-.13,9,.47A12.16,12.16,0,0,0,20.38,16.35Z"/></g></svg>